<svg width="1060" height="231" viewBox="0 0 1060 231" fill="none" xmlns="http://www.w3.org/2000/svg">
<path d="M53.504 157.28C44.4587 157.28 36.2667 155.317 28.928 151.392C21.6747 147.381 15.9573 141.877 11.776 134.88C7.68 127.883 5.632 119.989 5.632 111.2C5.632 102.411 7.72267 94.5173 11.904 87.52C16.0853 80.5227 21.8027 75.0613 29.056 71.136C36.3947 67.1253 44.5867 65.12 53.632 65.12C60.9707 65.12 67.6693 66.4 73.728 68.96C79.7867 71.52 84.9067 75.232 89.088 80.096L78.336 90.208C71.8507 83.2107 63.872 79.712 54.4 79.712C48.256 79.712 42.752 81.0773 37.888 83.808C33.024 86.4533 29.2267 90.1653 26.496 94.944C23.7653 99.7227 22.4 105.141 22.4 111.2C22.4 117.259 23.7653 122.677 26.496 127.456C29.2267 132.235 33.024 135.989 37.888 138.72C42.752 141.365 48.256 142.688 54.4 142.688C63.872 142.688 71.8507 139.147 78.336 132.064L89.088 142.304C84.9067 147.168 79.744 150.88 73.6 153.44C67.5413 156 60.8427 157.28 53.504 157.28ZM142.28 86.88C150.899 86.88 157.811 89.3973 163.016 94.432C168.221 99.4667 170.824 106.933 170.824 116.832V156H154.824V118.88C154.824 112.907 153.416 108.427 150.6 105.44C147.784 102.368 143.773 100.832 138.568 100.832C132.68 100.832 128.029 102.624 124.616 106.208C121.203 109.707 119.496 114.784 119.496 121.44V156H103.496V61.024H119.496V95.584C122.141 92.768 125.384 90.6347 129.224 89.184C133.149 87.648 137.501 86.88 142.28 86.88ZM191.121 61.024H207.121V156H191.121V61.024ZM258.841 156.896C251.929 156.896 245.7 155.403 240.153 152.416C234.606 149.429 230.254 145.291 227.097 140C224.025 134.624 222.489 128.565 222.489 121.824C222.489 115.083 224.025 109.067 227.097 103.776C230.254 98.4853 234.606 94.3467 240.153 91.36C245.7 88.3733 251.929 86.88 258.841 86.88C265.838 86.88 272.11 88.3733 277.657 91.36C283.204 94.3467 287.513 98.4853 290.585 103.776C293.742 109.067 295.321 115.083 295.321 121.824C295.321 128.565 293.742 134.624 290.585 140C287.513 145.291 283.204 149.429 277.657 152.416C272.11 155.403 265.838 156.896 258.841 156.896ZM258.841 143.2C264.729 143.2 269.593 141.237 273.433 137.312C277.273 133.387 279.193 128.224 279.193 121.824C279.193 115.424 277.273 110.261 273.433 106.336C269.593 102.411 264.729 100.448 258.841 100.448C252.953 100.448 248.089 102.411 244.249 106.336C240.494 110.261 238.617 115.424 238.617 121.824C238.617 128.224 240.494 133.387 244.249 137.312C248.089 141.237 252.953 143.2 258.841 143.2ZM325.853 97.632C330.461 90.464 338.568 86.88 350.173 86.88V102.112C348.808 101.856 347.57 101.728 346.461 101.728C340.232 101.728 335.368 103.563 331.869 107.232C328.37 110.816 326.621 116.021 326.621 122.848V156H310.621V87.648H325.853V97.632ZM393.841 156.896C386.929 156.896 380.7 155.403 375.153 152.416C369.606 149.429 365.254 145.291 362.097 140C359.025 134.624 357.489 128.565 357.489 121.824C357.489 115.083 359.025 109.067 362.097 103.776C365.254 98.4853 369.606 94.3467 375.153 91.36C380.7 88.3733 386.929 86.88 393.841 86.88C400.838 86.88 407.11 88.3733 412.657 91.36C418.204 94.3467 422.513 98.4853 425.585 103.776C428.742 109.067 430.321 115.083 430.321 121.824C430.321 128.565 428.742 134.624 425.585 140C422.513 145.291 418.204 149.429 412.657 152.416C407.11 155.403 400.838 156.896 393.841 156.896ZM393.841 143.2C399.729 143.2 404.593 141.237 408.433 137.312C412.273 133.387 414.193 128.224 414.193 121.824C414.193 115.424 412.273 110.261 408.433 106.336C404.593 102.411 399.729 100.448 393.841 100.448C387.953 100.448 383.089 102.411 379.249 106.336C375.494 110.261 373.617 115.424 373.617 121.824C373.617 128.224 375.494 133.387 379.249 137.312C383.089 141.237 387.953 143.2 393.841 143.2ZM706.629 157.28C697.584 157.28 689.392 155.317 682.053 151.392C674.8 147.381 669.082 141.877 664.901 134.88C660.805 127.883 658.757 119.989 658.757 111.2C658.757 102.411 660.848 94.5173 665.029 87.52C669.21 80.5227 674.928 75.0613 682.181 71.136C689.52 67.1253 697.712 65.12 706.757 65.12C714.096 65.12 720.794 66.4 726.853 68.96C732.912 71.52 738.032 75.232 742.213 80.096L731.461 90.208C724.976 83.2107 716.997 79.712 707.525 79.712C701.381 79.712 695.877 81.0773 691.013 83.808C686.149 86.4533 682.352 90.1653 679.621 94.944C676.89 99.7227 675.525 105.141 675.525 111.2C675.525 117.259 676.89 122.677 679.621 127.456C682.352 132.235 686.149 135.989 691.013 138.72C695.877 141.365 701.381 142.688 707.525 142.688C716.997 142.688 724.976 139.147 731.461 132.064L742.213 142.304C738.032 147.168 732.869 150.88 726.725 153.44C720.666 156 713.968 157.28 706.629 157.28ZM784.841 156.896C777.929 156.896 771.7 155.403 766.153 152.416C760.606 149.429 756.254 145.291 753.097 140C750.025 134.624 748.489 128.565 748.489 121.824C748.489 115.083 750.025 109.067 753.097 103.776C756.254 98.4853 760.606 94.3467 766.153 91.36C771.7 88.3733 777.929 86.88 784.841 86.88C791.838 86.88 798.11 88.3733 803.657 91.36C809.204 94.3467 813.513 98.4853 816.585 103.776C819.742 109.067 821.321 115.083 821.321 121.824C821.321 128.565 819.742 134.624 816.585 140C813.513 145.291 809.204 149.429 803.657 152.416C798.11 155.403 791.838 156.896 784.841 156.896ZM784.841 143.2C790.729 143.2 795.593 141.237 799.433 137.312C803.273 133.387 805.193 128.224 805.193 121.824C805.193 115.424 803.273 110.261 799.433 106.336C795.593 102.411 790.729 100.448 784.841 100.448C778.953 100.448 774.089 102.411 770.249 106.336C766.494 110.261 764.617 115.424 764.617 121.824C764.617 128.224 766.494 133.387 770.249 137.312C774.089 141.237 778.953 143.2 784.841 143.2ZM903.565 61.024V156H888.205V147.168C885.56 150.411 882.274 152.843 878.349 154.464C874.509 156.085 870.242 156.896 865.549 156.896C858.978 156.896 853.048 155.445 847.757 152.544C842.552 149.643 838.456 145.547 835.469 140.256C832.482 134.88 830.989 128.736 830.989 121.824C830.989 114.912 832.482 108.811 835.469 103.52C838.456 98.2293 842.552 94.1333 847.757 91.232C853.048 88.3307 858.978 86.88 865.549 86.88C870.072 86.88 874.21 87.648 877.965 89.184C881.72 90.72 884.92 93.024 887.565 96.096V61.024H903.565ZM867.469 143.2C871.309 143.2 874.765 142.347 877.837 140.64C880.909 138.848 883.341 136.331 885.133 133.088C886.925 129.845 887.821 126.091 887.821 121.824C887.821 117.557 886.925 113.803 885.133 110.56C883.341 107.317 880.909 104.843 877.837 103.136C874.765 101.344 871.309 100.448 867.469 100.448C863.629 100.448 860.173 101.344 857.101 103.136C854.029 104.843 851.597 107.317 849.805 110.56C848.013 113.803 847.117 117.557 847.117 121.824C847.117 126.091 848.013 129.845 849.805 133.088C851.597 136.331 854.029 138.848 857.101 140.64C860.173 142.347 863.629 143.2 867.469 143.2ZM988.752 122.208C988.752 123.317 988.667 124.896 988.496 126.944H934.864C935.803 131.979 938.235 135.989 942.16 138.976C946.171 141.877 951.12 143.328 957.008 143.328C964.517 143.328 970.704 140.853 975.568 135.904L984.144 145.76C981.072 149.429 977.189 152.203 972.496 154.08C967.803 155.957 962.512 156.896 956.624 156.896C949.115 156.896 942.501 155.403 936.784 152.416C931.067 149.429 926.629 145.291 923.472 140C920.4 134.624 918.864 128.565 918.864 121.824C918.864 115.168 920.357 109.195 923.344 103.904C926.416 98.528 930.64 94.3467 936.016 91.36C941.392 88.3733 947.451 86.88 954.192 86.88C960.848 86.88 966.779 88.3733 971.984 91.36C977.275 94.2613 981.371 98.4 984.272 103.776C987.259 109.067 988.752 115.211 988.752 122.208ZM954.192 99.68C949.072 99.68 944.72 101.216 941.136 104.288C937.637 107.275 935.504 111.285 934.736 116.32H973.52C972.837 111.371 970.747 107.36 967.248 104.288C963.749 101.216 959.397 99.68 954.192 99.68ZM1025.24 156.896C1019.69 156.896 1014.28 156.171 1008.99 154.72C1003.69 153.269 999.47 151.435 996.313 149.216L1002.46 137.056C1005.53 139.104 1009.2 140.768 1013.47 142.048C1017.82 143.243 1022.08 143.84 1026.27 143.84C1035.82 143.84 1040.6 141.323 1040.6 136.288C1040.6 133.899 1039.36 132.235 1036.89 131.296C1034.5 130.357 1030.62 129.461 1025.24 128.608C1019.61 127.755 1015 126.773 1011.42 125.664C1007.92 124.555 1004.85 122.635 1002.2 119.904C999.641 117.088 998.361 113.205 998.361 108.256C998.361 101.771 1001.05 96.608 1006.43 92.768C1011.89 88.8427 1019.23 86.88 1028.44 86.88C1033.13 86.88 1037.83 87.4347 1042.52 88.544C1047.21 89.568 1051.05 90.976 1054.04 92.768L1047.9 104.928C1042.09 101.515 1035.57 99.808 1028.31 99.808C1023.62 99.808 1020.04 100.533 1017.56 101.984C1015.17 103.349 1013.98 105.184 1013.98 107.488C1013.98 110.048 1015.26 111.883 1017.82 112.992C1020.46 114.016 1024.52 114.997 1029.98 115.936C1035.44 116.789 1039.92 117.771 1043.42 118.88C1046.92 119.989 1049.9 121.867 1052.38 124.512C1054.94 127.157 1056.22 130.912 1056.22 135.776C1056.22 142.176 1053.44 147.296 1047.9 151.136C1042.35 154.976 1034.8 156.896 1025.24 156.896Z" fill="white"/>
<path d="M509.812 140.625L474.312 112.375C473.646 111.708 473.312 110.917 473.312 110C473.312 109.167 473.646 108.5 474.312 108L508.875 80.5C509.125 80.25 509.438 80.2917 509.812 80.625L516.062 88.4375C516.312 88.9375 516.354 89.2708 516.188 89.4375L490.562 110.188L517.062 131.688C517.354 131.938 517.354 132.271 517.062 132.688L510.688 140.5C510.354 140.833 510.062 140.875 509.812 140.625ZM542.5 156H529.438C529.062 156 528.896 155.792 528.938 155.375L544.812 67.4375C544.896 67.1042 545.104 66.9375 545.438 66.9375H558.75C559.167 66.9375 559.333 67.1042 559.25 67.4375L543.125 155.375C543.083 155.792 542.875 156 542.5 156ZM611.062 112.375L575.625 140.625C575.375 140.875 575.083 140.833 574.75 140.5L568.312 132.688C568.062 132.271 568.062 131.938 568.312 131.688L594.812 110.188L569.188 89.4375C569.021 89.2708 569.083 88.9375 569.375 88.4375L575.625 80.625C575.958 80.2917 576.25 80.25 576.5 80.5L611.062 108C611.771 108.5 612.125 109.167 612.125 110C612.125 110.875 611.771 111.667 611.062 112.375Z" fill="#71FFAA"/>
</svg>
